# xmcd
#
# Track frame offsets:
#	150
#	29595
#	54355
#	78767
#	96952
#	127327
#	148659
#	166928
#	182701
#	201776
#	215422
#	233413
#	246823
#
# Disc length: 3659 seconds
# Revision: 1
# Processed by: cddbd v1.5.2PL0 Copyright (c) Steve Scherf et al.
# Submitted via: dBpowerAMP V12.0
#
DISCID=b10e490d
DTITLE=Powerhouse Blues Band - Live At Musicland
DYEAR=2012
DGENRE=Blues
TTITLE0=Can't Quit You Babe
TTITLE1=Powerhouse Boogie
TTITLE2=Commit A Crime
TTITLE3=Cold Women With Warm Hearts
TTITLE4=Gotta Woman
TTITLE5=Knockin At Midnight
TTITLE6=Walkin Blues
TTITLE7=She Does It Right
TTITLE8=Crosscut Saw Blues
TTITLE9=You Don't Love Me
TTITLE10=Yonders Wall
TTITLE11=Outside Woman Blues
TTITLE12=They Called Me The Doctor
EXTD=
EXTT0=
EXTT1=
EXTT2=
EXTT3=
EXTT4=
EXTT5=
EXTT6=
EXTT7=
EXTT8=
EXTT9=
EXTT10=
EXTT11=
EXTT12=
PLAYORDER=
